# xmcd
#
# Track frame offsets: 
#        150
#        33375
#        59193
#        81893
#        96158
#        122493
#        150820
#        187843
#        229443
#        257725
#        287030
#        308003
#
# Disc length: 4355 seconds
#
# Revision: 10
# Processed by: cddbd v1.5.2PL0 Copyright (c) Steve Scherf et al.
# Submitted via: ExactAudioCopy v0.95b4
#
DISCID=9a11010c
DTITLE=Charles Mingus - Mingus Ah Um
DYEAR=1959
DGENRE=Jazz
TTITLE0=Better Git It in Your Soul
TTITLE1=Goobye Pork Pie Hat
TTITLE2=Boogie Stop Shuffle
TTITLE3=Self-Portrait in Three Colors
TTITLE4=Open Letter to Duke
TTITLE5=Bird Calls
TTITLE6=Fables of Faubus
TTITLE7=Pussy Cat Dues
TTITLE8=Jelly Roll
TTITLE9=Pedal Point Blues
TTITLE10=GG Train
TTITLE11=Girl Of My Dreams
EXTD=YEAR: 1959
EXTT0=
EXTT1=
EXTT2=
EXTT3=
EXTT4=
EXTT5=
EXTT6=
EXTT7=
EXTT8=
EXTT9=
EXTT10=
EXTT11=
PLAYORDER=
